<svg width="200" height="200" viewBox="0 0 200 200" xmlns="http://www.w3.org/2000/svg">
  <rect width="200" height="200" fill="white"/>
  <!-- Pin body (inverted teardrop with thick outline) -->
  <path d="M 100 40 C 100 30, 110 20, 120 20 L 130 20 C 140 20, 150 30, 150 40 L 150 120 C 150 130, 140 140, 130 140 L 100 180 L 70 140 C 60 140, 50 130, 50 120 L 50 40 C 50 30, 60 20, 70 20 L 80 20 C 90 20, 100 30, 100 40 Z" 
        fill="none" 
        stroke="#9333ea" 
        stroke-width="8" 
        stroke-linecap="round" 
        stroke-linejoin="round"/>
  <!-- Central circle -->
  <circle cx="100" cy="75" r="18" fill="none" stroke="#9333ea" stroke-width="8"/>
  <!-- Base shadow (solid purple oval) -->
  <ellipse cx="100" cy="185" rx="30" ry="10" fill="#9333ea"/>
</svg>
